<svg width="100" height="100" viewBox="0 0 100 100" fill="none" xmlns="http://www.w3.org/2000/svg">
<g clip-path="url(#clip0_1_2)">
<path d="M-0.000158263 22.0584C-0.260988 14.2993 5.7649 7.79562 13.4679 7.52798C15.6348 7.4541 17.7889 7.88739 19.758 8.7932C21.7271 9.69901 23.4565 11.0522 24.8079 12.7445C21.5365 14.0803 11.9322 19.1436 7.27381 33.9124C5.13631 32.7349 3.34204 31.0232 2.06688 28.9452C0.791721 26.8671 0.0794336 24.494 -0.000158263 22.0584V22.0584ZM9.92111 33.4574H36.221C35.1274 26.5954 31.3694 20.4397 25.761 16.3236C25.1589 15.8808 24.6421 15.5377 24.2423 15.2895C17.9057 19.9342 12.9578 26.2154 9.93086 33.4574H9.92111ZM64.0371 33.4574H89.552C86.6218 26.4501 81.8922 20.3379 75.8402 15.7372C75.46 15.9805 74.9846 16.2968 74.4459 16.6934C68.9397 20.7313 65.2117 26.7384 64.042 33.4574H64.0371ZM30.8118 54.4647C34.8112 49.368 36.8433 43.0069 36.5379 36.5401H8.77541C6.51835 43.4328 6.03302 50.7812 7.364 57.91C17.5558 57.7567 21.5731 51.0973 21.5731 51.0973L24.2838 54.236C19.7936 59.9781 12.9755 61.4453 8.25131 61.7032C8.57633 62.8759 8.95579 64.0276 9.3897 65.1582C19.9667 64.7883 26.6702 59.7591 30.8167 54.4647H30.8118ZM40.2212 42.6107C39.0219 49.4501 36.4672 54.5328 33.3055 58.326C35.0802 60.5499 40.131 65.3479 50.6885 65.1703C50.6885 65.1703 58.9765 65.9173 66.8745 58.6861C63.7251 54.9002 61.185 49.8224 59.9662 42.9805C59.9662 42.9805 56.5827 22.7348 71.7767 13C65.9774 9.54606 59.4423 7.50933 52.7044 7.05596V23.3577H47.7779V7C40.9605 7.29694 34.3129 9.21558 28.3888 12.5961C43.6193 22.3285 40.2212 42.6107 40.2212 42.6107V42.6107ZM88.226 7.75182C85.8205 7.34545 83.3506 7.56925 81.0577 8.40133C78.7649 9.2334 76.7277 10.6453 75.1455 12.4988C87.5361 19.2798 91.117 29.5742 92.4285 33.8662C94.359 32.8812 96.0317 31.459 97.313 29.7133C98.5943 27.9676 99.4485 25.9468 99.8073 23.8127C101.082 16.2263 95.8973 9.03406 88.226 7.75182V7.75182ZM76.1498 53.4574L79.075 50.3479C79.075 50.3479 82.7047 56.5474 92.2773 56.9805C92.6559 54.6655 92.8458 52.3237 92.8453 49.9781C92.849 45.4134 92.1241 40.8772 90.6977 36.5401H63.6836C63.2818 43.1295 65.3118 49.6375 69.3902 54.8346C73.4221 59.9854 79.8721 64.8881 89.9591 65.4793C90.5581 63.9336 91.066 62.3543 91.4802 60.7494C86.8048 60.4136 80.4425 58.8637 76.1498 53.4574V53.4574ZM47.6414 73.7908V70.7202C42.0592 70.1801 35.9407 67.7105 29.788 61.854C23.082 67.472 15.1133 68.8783 11.1814 69.2238C16.2757 79.3662 25.1672 87.0977 35.9309 90.7445C38.7064 89.5453 41.1913 87.7646 43.2171 85.5231C46.09 82.2902 47.6656 78.1121 47.6414 73.7908V73.7908ZM42.8051 92.4453C47.7029 93.234 52.6997 93.1813 57.5797 92.2895C54.4567 88.9351 51.9491 85.0585 50.1717 80.837C48.4215 85.1099 45.9275 89.0399 42.8051 92.4453V92.4453ZM52.7361 70.7105V73.8735C52.7094 78.0228 54.218 82.0359 56.9728 85.1436C59.0307 87.4337 61.5659 89.2466 64.4003 90.455C74.6901 86.7272 83.1808 79.2436 88.1601 69.5134C84.1136 69.056 77.0469 67.5474 70.9113 62.6375C68.3566 64.781 61.5214 69.8297 52.7361 70.7105V70.7105Z" fill="url(#paint0_linear_1_2)"/>
</g>
<defs>
<linearGradient id="paint0_linear_1_2" x1="21.1685" y1="16.0511" x2="98.0907" y2="79.8303" gradientUnits="userSpaceOnUse">
<stop stop-color="#EA3570"/>
<stop offset="0.88" stop-color="#138FC9"/>
</linearGradient>
<clipPath id="clip0_1_2">
<rect width="100" height="86" fill="white" transform="translate(0 7)"/>
</clipPath>
</defs>
</svg>
